<?xml version="1.0" standalone="no"?>
<!DOCTYPE svg PUBLIC "-//W3C//DTD SVG 20010904//EN"
 "http://www.w3.org/TR/2001/REC-SVG-20010904/DTD/svg10.dtd">
<svg version="1.0" xmlns="http://www.w3.org/2000/svg"
 width="1004.000000pt" height="333.000000pt" viewBox="0 0 1004.000000 333.000000"
 preserveAspectRatio="xMidYMid meet">

<g transform="translate(0.000000,333.000000) scale(0.100000,-0.100000)"
fill="#000000" stroke="none">
<path d="M1050 2963 c-7 -16 -16 -41 -20 -58 -5 -16 -18 -55 -30 -85 -12 -30
-25 -68 -30 -85 -11 -39 -29 -91 -46 -133 -8 -18 -14 -39 -14 -47 0 -7 -6 -26
-14 -42 -15 -30 -32 -79 -46 -128 -9 -32 -35 -107 -49 -140 -13 -32 -32 -88
-41 -120 -10 -37 -29 -89 -47 -132 -7 -17 -13 -36 -13 -42 0 -6 -6 -25 -14
-43 -17 -42 -35 -94 -46 -133 -5 -16 -18 -55 -30 -85 -12 -30 -25 -68 -30 -85
-5 -16 -14 -46 -21 -65 -21 -60 -36 -104 -51 -145 -26 -69 -39 -109 -48 -140
-5 -16 -25 -75 -45 -130 -20 -55 -40 -113 -45 -130 -4 -16 -18 -55 -30 -85
-12 -30 -24 -64 -27 -74 -9 -29 -63 -128 -82 -150 -23 -26 -77 -49 -136 -55
l-50 -6 0 -70 0 -70 343 -3 343 -2 -3 72 -3 73 -65 5 c-89 8 -123 23 -149 70
-22 39 -22 41 -5 97 9 32 22 73 30 91 8 18 14 39 14 46 0 8 7 27 15 42 8 16
15 36 15 45 0 9 7 30 15 45 8 16 15 38 15 50 0 11 4 24 9 30 6 5 14 27 20 49
9 38 18 66 47 145 7 19 15 43 18 53 5 16 34 17 414 17 315 0 412 -3 426 -13 9
-7 21 -28 26 -47 4 -19 14 -51 21 -70 6 -19 17 -51 24 -70 7 -19 18 -51 24
-70 7 -19 16 -48 21 -65 11 -39 29 -91 46 -133 8 -18 14 -41 14 -51 0 -10 7
-35 15 -54 8 -20 15 -60 15 -90 0 -43 -4 -57 -22 -73 -34 -30 -74 -44 -124
-44 -71 0 -84 -12 -84 -73 0 -29 4 -58 8 -65 7 -9 96 -12 413 -10 l404 3 0 70
0 70 -50 6 c-59 6 -113 29 -136 55 -20 23 -79 133 -79 146 0 6 -6 24 -14 41
-8 18 -16 41 -19 52 -7 26 -65 194 -76 220 -13 31 -32 87 -41 120 -14 48 -39
119 -50 137 -6 10 -10 25 -10 34 0 9 -6 30 -13 47 -20 48 -38 98 -47 136 -5
18 -13 38 -19 44 -6 6 -11 20 -11 32 0 11 -7 33 -15 49 -8 15 -15 34 -15 42 0
7 -6 28 -14 46 -17 42 -35 94 -46 133 -5 17 -18 55 -30 85 -12 30 -26 69 -30
85 -9 32 -35 107 -49 140 -13 32 -32 88 -41 120 -8 29 -19 62 -46 138 -8 20
-20 54 -28 75 -26 73 -38 107 -46 137 -14 48 -39 119 -50 137 -6 10 -10 25
-10 33 0 9 -7 29 -15 45 l-16 30 -133 0 -133 0 -13 -27z m109 -373 c7 -19 16
-48 21 -65 8 -28 15 -50 45 -135 38 -105 68 -199 72 -225 3 -16 9 -35 14 -40
4 -6 12 -29 18 -50 5 -22 15 -56 22 -75 6 -19 17 -51 24 -70 7 -19 18 -51 24
-70 7 -19 16 -48 21 -65 10 -36 28 -87 47 -136 8 -20 13 -45 11 -55 -3 -18
-19 -19 -350 -19 -190 0 -349 3 -353 7 -4 4 3 35 14 70 12 35 26 77 31 93 4
17 14 46 21 65 6 19 17 51 24 70 7 19 18 51 24 70 7 19 16 49 21 65 5 17 14
46 21 65 6 19 17 51 24 70 7 19 18 51 24 70 7 19 16 49 21 65 11 39 29 91 46
133 8 18 14 39 14 46 0 8 7 27 15 42 8 16 15 37 15 47 0 10 10 37 21 60 19 37
23 39 29 22 4 -11 13 -36 19 -55z"/>
<path d="M2774 2976 c-3 -8 -4 -31 -2 -52 l3 -39 1735 0 1735 0 0 50 0 50
-1733 3 c-1476 2 -1733 0 -1738 -12z"/>
<path d="M6524 2976 c-3 -7 -4 -40 -2 -72 l3 -59 90 -5 c126 -8 151 -22 185
-98 19 -43 20 -71 20 -783 0 -627 2 -750 15 -816 18 -90 43 -177 61 -213 7
-14 15 -32 19 -40 21 -52 94 -147 156 -204 55 -51 172 -132 219 -152 31 -13
86 -37 103 -46 10 -5 37 -13 60 -18 23 -5 60 -13 82 -19 70 -18 340 -13 425 8
183 45 275 93 409 215 48 43 55 46 64 31 5 -10 7 -61 5 -116 -4 -71 -1 -102 7
-109 8 -7 97 -9 241 -8 l229 3 0 70 0 70 -80 6 c-121 8 -170 46 -194 150 -11
46 -11 225 -2 990 11 842 14 938 29 974 21 49 43 72 77 81 14 3 28 10 31 15 3
5 33 9 68 9 35 0 67 5 74 12 13 13 16 106 4 126 -7 9 -90 12 -383 10 l-374 -3
-3 -64 c-4 -76 1 -81 79 -81 58 0 120 -20 147 -47 9 -8 24 -31 34 -49 17 -32
18 -79 18 -777 0 -630 -2 -751 -15 -793 -8 -27 -15 -61 -15 -75 0 -14 -7 -34
-15 -45 -8 -10 -15 -25 -15 -32 0 -22 -69 -119 -115 -163 -51 -49 -134 -106
-190 -133 -22 -10 -49 -24 -60 -29 -11 -6 -36 -14 -55 -18 -19 -4 -53 -12 -75
-18 -135 -35 -364 17 -490 112 -171 129 -232 248 -254 494 -15 165 -15 1342 0
1431 18 107 52 133 189 142 l85 5 0 70 0 70 -443 3 c-368 2 -443 0 -448 -12z"/>
<path d="M2897 2753 c-4 -3 -7 -25 -7 -47 0 -23 -7 -72 -15 -111 -8 -38 -15
-94 -15 -123 0 -47 3 -54 25 -62 31 -12 87 -16 102 -7 6 4 14 24 18 44 17 92
117 139 325 153 113 7 1130 0 1130 -8 0 -6 -74 -93 -126 -147 -21 -22 -94
-103 -163 -180 -68 -77 -127 -142 -130 -145 -9 -7 -97 -105 -176 -194 -87 -99
-105 -119 -164 -181 -25 -27 -80 -88 -121 -135 -62 -71 -129 -145 -187 -205
-6 -7 -31 -34 -54 -61 -36 -42 -181 -203 -215 -238 -5 -6 -50 -56 -99 -111
-48 -55 -91 -102 -95 -105 -3 -3 -18 -21 -33 -41 -34 -45 -38 -122 -9 -138 11
-6 139 -10 305 -11 l286 -1 6 24 c4 13 5 48 3 78 l-3 54 -80 3 c-44 2 -84 7
-90 13 -6 6 7 26 36 57 25 26 62 67 84 92 21 25 59 68 85 95 25 28 91 100 145
160 54 61 135 151 180 200 45 50 104 115 131 145 111 123 240 266 250 275 5 6
39 44 75 85 35 41 73 84 84 95 12 11 61 65 110 120 49 55 130 145 180 200 225
245 225 245 225 291 0 23 -3 49 -6 58 -6 14 -103 16 -998 16 -546 0 -996 -3
-999 -7z"/>
<path d="M5401 2751 c-20 -13 -19 -130 0 -142 8 -5 46 -9 85 -9 39 0 74 -3 77
-6 4 -4 -8 -23 -25 -43 -33 -38 -176 -196 -194 -215 -6 -6 -50 -56 -99 -111
-49 -55 -91 -102 -94 -105 -4 -3 -51 -54 -105 -115 -152 -168 -259 -287 -276
-304 -9 -9 -45 -50 -80 -91 -36 -41 -95 -106 -131 -145 -36 -38 -83 -90 -105
-115 -45 -53 -216 -243 -225 -250 -3 -3 -45 -50 -94 -105 -48 -55 -91 -102
-95 -105 -3 -3 -18 -21 -33 -41 -31 -41 -38 -122 -13 -136 23 -13 2050 3 2075
16 12 7 22 25 26 49 7 44 32 169 47 232 20 83 27 154 17 166 -5 7 -29 9 -62 6
-60 -5 -87 -17 -87 -37 0 -24 -77 -131 -122 -170 -54 -46 -105 -73 -176 -91
-74 -20 -1287 -26 -1287 -7 0 7 18 31 40 55 22 24 69 77 105 118 36 41 74 84
86 95 22 21 87 93 199 219 39 44 75 84 80 90 19 19 118 129 189 209 85 96 106
119 165 182 25 28 78 86 116 130 39 43 97 109 131 145 74 79 278 306 392 435
l83 95 -3 52 -3 53 -295 2 c-167 2 -301 -1 -309 -6z"/>
<path d="M2774 566 c-3 -8 -4 -31 -2 -52 l3 -39 1735 0 1735 0 0 50 0 50
-1733 3 c-1476 2 -1733 0 -1738 -12z"/>
</g>
</svg>
