<?xml version="1.0" standalone="no"?>
<!DOCTYPE svg PUBLIC "-//W3C//DTD SVG 20010904//EN"
 "http://www.w3.org/TR/2001/REC-SVG-20010904/DTD/svg10.dtd">
<svg version="1.0" xmlns="http://www.w3.org/2000/svg"
 width="820.000000pt" height="190.000000pt" viewBox="0 0 820.000000 190.000000"
 preserveAspectRatio="xMidYMid meet">

<g transform="translate(0.000000,190.000000) scale(0.100000,-0.100000)"
fill="#000000" stroke="none">
<path d="M2215 1546 c-16 -7 -39 -23 -50 -36 -19 -21 -20 -38 -23 -541 -2
-452 -1 -523 13 -549 32 -63 -9 -60 915 -60 761 0 845 2 870 16 62 37 60 22
60 581 0 492 -1 509 -20 541 -39 64 -6 62 -912 62 -661 -1 -829 -3 -853 -14z
m1216 -176 c127 -24 245 -117 302 -237 29 -63 31 -76 32 -173 0 -103 -1 -108
-38 -182 -80 -163 -239 -251 -422 -234 -97 9 -239 80 -228 114 3 7 -4 12 -16
12 -11 0 -23 5 -26 10 -4 6 9 10 33 10 23 0 45 6 52 15 11 13 4 15 -54 15 -37
0 -66 4 -66 10 0 6 31 10 74 10 56 0 75 4 80 15 4 13 -9 15 -89 15 -128 0
-123 19 7 22 70 2 103 7 106 16 3 9 -24 12 -112 12 -157 0 -152 19 6 22 86 2
123 7 126 16 5 15 -64 17 -73 2 -9 -14 -45 -12 -45 2 0 9 -3 9 -12 0 -28 -28
-118 5 -118 44 0 8 -7 14 -15 14 -8 0 -15 -7 -15 -15 0 -8 7 -15 15 -15 17 0
18 -2 9 -24 -8 -20 -48 -21 -66 -2 -12 11 -17 11 -33 0 -27 -20 -82 -18 -94 4
-9 15 -10 15 -11 1 0 -14 -11 -17 -55 -18 -50 0 -56 2 -69 27 l-15 27 -1 -27
c0 -22 -5 -28 -21 -28 -20 0 -21 4 -15 53 l6 52 -25 -52 c-39 -82 -72 -70 -76
27 -1 28 -3 24 -11 -22 -8 -47 -14 -58 -29 -58 -23 0 -23 9 -7 113 l11 77 39
0 38 0 1 -52 0 -53 22 52 c21 51 23 53 61 53 37 0 38 -1 33 -27 -3 -16 -9 -45
-13 -67 l-7 -39 22 22 c12 12 34 21 51 21 17 0 30 5 30 10 0 6 -16 10 -36 10
-28 0 -35 3 -32 18 4 21 67 29 99 12 19 -11 21 -17 15 -61 l-7 -49 36 0 c41 0
45 12 10 28 -32 15 -35 66 -6 82 21 11 74 14 84 4 12 -12 -6 -34 -29 -34 -28
0 -32 -20 -5 -27 10 -3 23 -14 28 -26 9 -19 11 -15 17 28 15 105 -2 95 167 95
91 0 149 4 149 10 0 16 -42 22 -148 18 -77 -2 -102 0 -102 10 0 9 31 12 120
12 102 0 119 2 114 15 -5 12 -27 15 -110 15 -63 0 -104 4 -104 10 0 6 39 10
96 10 72 0 95 3 92 13 -3 8 -32 13 -87 15 -97 3 -101 22 -5 22 48 0 65 3 62
13 -3 6 -25 13 -51 15 -51 3 -66 22 -17 22 17 0 30 5 30 10 0 6 -5 10 -12 10
-22 0 36 50 87 75 84 42 171 53 266 35z"/>
<path d="M2949 1010 c4 -3 10 -10 12 -16 3 -7 13 -6 30 5 l27 16 -38 0 c-22 0
-35 -2 -31 -5z"/>
<path d="M3041 1012 c27 -9 49 -35 50 -61 1 -17 4 -13 8 14 5 32 11 41 29 43
12 2 22 -2 22 -8 0 -7 6 -8 19 0 13 7 21 7 24 0 3 -6 4 -5 3 2 -2 8 -29 12
-86 13 -46 1 -77 -1 -69 -3z"/>
<path d="M3180 972 c0 -7 -7 -12 -15 -12 -8 0 -15 -4 -15 -8 0 -5 7 -9 15 -9
15 0 30 26 20 35 -3 3 -5 0 -5 -6z"/>
<path d="M2930 954 c0 -14 3 -14 15 -4 8 7 15 14 15 16 0 2 -7 4 -15 4 -8 0
-15 -7 -15 -16z"/>
<path d="M3005 960 c-4 -6 5 -10 20 -10 15 0 24 4 20 10 -3 6 -12 10 -20 10
-8 0 -17 -4 -20 -10z"/>
<path d="M2667 913 c-13 -12 -7 -23 12 -23 10 0 21 7 25 15 5 15 -24 22 -37 8z"/>
<path d="M3000 906 c0 -9 15 -15 45 -18 38 -3 45 0 45 14 0 15 -9 18 -45 18
-32 0 -45 -4 -45 -14z"/>
<path d="M3135 911 c-7 -12 9 -20 38 -18 10 0 16 5 14 11 -5 15 -44 20 -52 7z"/>
<path d="M7635 1550 c-71 -3 -117 -7 -101 -8 28 -2 28 -3 12 -21 -15 -17 -15
-20 -1 -34 17 -17 20 -47 5 -47 -14 0 -12 -27 3 -33 10 -4 10 -6 0 -6 -7 -1
-13 -10 -13 -22 0 -11 5 -17 10 -14 6 3 10 -3 10 -14 0 -10 6 -22 13 -25 6 -3
2 -3 -10 0 -27 6 -31 -10 -5 -22 27 -12 42 -13 300 -14 l242 -1 -2 -162 -3
-162 -77 -3 c-57 -2 -78 1 -78 10 0 9 -3 9 -12 0 -8 -8 -46 -12 -103 -12 -88
0 -92 1 -103 25 -15 32 -46 32 -61 -1 -11 -25 -13 -26 -96 -23 -50 2 -85 -1
-84 -6 0 -6 8 -9 17 -7 15 2 15 1 2 -7 -20 -14 -41 -14 -38 1 2 6 -6 13 -17
15 -16 3 -17 2 -5 -6 12 -8 10 -12 -10 -20 -22 -9 -20 -10 20 -12 42 -1 43 -2
15 -9 -16 -4 142 -8 353 -9 l383 -1 -3 279 c-3 264 -4 281 -24 307 -49 66 -60
69 -242 69 -92 0 -225 -2 -297 -5z"/>
<path d="M90 1522 c-19 -9 -45 -32 -57 -51 l-23 -34 0 -487 0 -487 23 -33 c12
-18 38 -41 57 -52 33 -17 71 -18 862 -16 817 3 827 3 854 24 15 11 37 33 48
48 21 27 21 38 21 516 0 480 0 489 -21 517 -11 15 -36 38 -54 51 l-33 22 -821
0 c-762 0 -824 -1 -856 -18z m1720 -37 c16 -16 35 -46 41 -67 6 -24 9 -205 7
-492 -3 -442 -4 -455 -24 -483 -11 -15 -36 -36 -55 -45 -32 -17 -92 -18 -837
-18 -891 0 -850 -3 -892 65 -19 31 -20 49 -20 504 0 521 -1 512 63 552 31 19
53 19 859 17 l827 -3 31 -30z"/>
<path d="M1045 1201 c-66 -30 -98 -72 -103 -134 -4 -47 -1 -57 23 -85 15 -18
49 -44 75 -57 79 -40 96 -67 64 -99 -20 -20 -107 -21 -162 -2 l-40 14 -6 -30
c-3 -17 -6 -43 -6 -59 0 -37 24 -44 145 -44 78 0 96 3 134 25 58 33 83 68 88
127 6 65 -22 106 -107 154 -36 20 -66 44 -68 53 -9 43 57 64 131 42 l46 -14 7
37 c3 20 8 44 11 53 6 25 -34 38 -120 38 -49 0 -85 -6 -112 -19z"/>
<path d="M551 1188 c-5 -13 -32 -88 -62 -166 l-53 -144 -16 49 c-22 69 -53
115 -112 168 -50 44 -74 57 -66 33 3 -7 29 -104 58 -215 l53 -203 72 0 72 0
82 203 c45 111 91 223 102 250 l19 47 -70 0 c-64 0 -71 -2 -79 -22z"/>
<path d="M750 1204 c0 -5 -66 -419 -75 -467 l-5 -28 68 3 67 3 37 225 c20 124
37 235 37 248 1 21 -3 22 -64 22 -36 0 -65 -3 -65 -6z"/>
<path d="M1458 1193 c-8 -10 -51 -106 -96 -213 -44 -107 -88 -212 -96 -232
l-16 -38 69 0 70 0 12 35 13 35 83 0 82 0 9 -32 c8 -32 9 -33 71 -36 57 -3 63
-1 59 15 -3 10 -27 123 -53 251 l-49 232 -71 0 c-56 0 -75 -4 -87 -17z m81
-205 c7 -35 14 -71 17 -80 5 -16 -2 -18 -45 -18 -28 0 -51 3 -51 7 0 18 55
161 61 157 3 -2 12 -32 18 -66z"/>
<path d="M4363 1521 c-26 -12 -52 -35 -70 -62 l-28 -43 -3 -433 c-2 -284 1
-446 8 -472 13 -50 54 -100 97 -117 26 -11 177 -14 819 -14 l787 0 41 24 c23
13 51 42 64 64 22 39 22 42 22 484 0 440 0 444 -22 488 -23 44 -77 90 -106 90
-8 0 5 -10 29 -23 31 -16 51 -36 67 -67 21 -41 22 -57 22 -235 0 -277 -12
-632 -21 -608 -4 11 -6 45 -6 76 2 54 1 57 -27 67 -31 11 -92 4 -102 -11 -8
-14 -21 -11 -21 5 0 7 5 13 11 13 6 0 20 1 31 2 16 1 17 3 5 11 -9 6 -17 5
-21 -2 -5 -8 -11 -9 -21 -1 -10 8 -33 1 -90 -27 -42 -21 -74 -41 -70 -45 4 -5
1 -5 -5 -1 -7 4 -25 1 -40 -7 -137 -71 -457 -177 -768 -253 -102 -26 -126 -28
-330 -28 -205 -1 -222 0 -255 20 -19 11 -44 34 -56 52 -21 30 -21 43 -26 469
-3 241 -1 452 4 470 10 36 49 87 82 106 16 9 212 13 806 17 l785 5 -775 2
c-742 2 -777 2 -817 -16z m1685 -795 c2 -3 -4 -15 -13 -28 l-17 -23 7 23 c5
18 2 22 -14 22 -11 0 -23 5 -27 12 -5 8 2 9 26 4 19 -3 35 -8 38 -10z m-152
-11 c10 -8 14 -15 7 -15 -6 0 -15 5 -18 10 -3 6 -14 10 -23 10 -15 0 -15 -2
-2 -10 9 -6 10 -10 3 -10 -15 0 -25 15 -16 24 10 10 28 7 49 -9z m77 -2 c-7
-2 -19 -2 -25 0 -7 3 -2 5 12 5 14 0 19 -2 13 -5z"/>
<path d="M7502 1304 c-14 -16 -5 -18 17 -5 7 5 9 11 5 14 -5 3 -15 -1 -22 -9z"/>
<path d="M4971 1250 c-18 -4 -48 -22 -65 -39 -28 -28 -31 -38 -31 -91 0 -53 3
-63 31 -90 35 -36 85 -50 130 -38 25 6 32 13 32 33 0 25 -12 33 -23 15 -16
-25 -106 2 -119 35 -33 86 47 166 124 125 15 -8 18 -6 16 15 -1 18 -9 28 -30
35 -16 5 -29 10 -30 9 -1 -1 -16 -5 -35 -9z"/>
<path d="M4360 1120 l0 -130 56 0 c118 0 186 80 149 176 -22 57 -70 84 -150
84 l-55 0 0 -130z m134 69 c20 -16 26 -29 26 -62 0 -53 -30 -87 -77 -87 l-33
0 0 85 0 85 29 0 c15 0 40 -9 55 -21z"/>
<path d="M4600 1120 l0 -130 25 0 25 0 0 130 0 130 -25 0 -25 0 0 -130z"/>
<path d="M4710 1232 c-45 -36 -21 -100 45 -122 35 -12 48 -30 39 -55 -9 -23
-43 -28 -71 -10 -22 15 -27 15 -40 2 -13 -13 -12 -17 8 -36 56 -52 159 -15
159 59 0 29 -47 80 -75 80 -20 0 -45 29 -39 45 8 20 31 26 58 15 18 -6 28 -5
36 5 28 33 -81 49 -120 17z"/>
<path d="M5362 1242 c2 -5 25 -63 53 -130 33 -80 55 -122 65 -122 10 0 32 43
65 122 28 67 52 126 53 130 2 4 -8 8 -21 8 -22 0 -29 -10 -59 -85 -18 -47 -35
-85 -38 -85 -3 0 -20 38 -38 85 -30 75 -37 85 -59 85 -13 0 -23 -4 -21 -8z"/>
<path d="M5630 1120 l0 -130 70 0 c63 0 70 2 70 20 0 17 -7 20 -45 20 l-45 0
0 40 0 40 45 0 c38 0 45 3 45 20 0 17 -7 20 -45 20 -43 0 -45 1 -45 30 0 29 2
30 45 30 38 0 45 3 45 20 0 18 -7 20 -70 20 l-70 0 0 -130z"/>
<path d="M5810 1120 c0 -129 0 -130 23 -126 19 3 22 9 22 49 0 25 2 48 5 50 3
3 21 -19 40 -48 28 -44 40 -54 63 -55 31 0 31 3 -15 61 -28 37 -35 59 -19 59
20 0 41 33 41 65 0 49 -37 75 -106 75 l-54 0 0 -130z m108 53 c3 -27 -1 -33
-22 -39 -35 -8 -46 1 -44 42 1 33 3 35 32 32 27 -3 31 -7 34 -35z"/>
<path d="M7536 1231 c-4 -6 -1 -11 6 -11 9 0 9 -3 -2 -10 -11 -8 -7 -10 19 -8
37 3 52 22 25 32 -12 4 -15 2 -10 -9 7 -20 -11 -19 -22 1 -6 11 -11 13 -16 5z"/>
<path d="M7640 1194 c-23 -54 -24 -57 -7 -48 6 4 2 -3 -10 -15 -13 -12 -24
-26 -24 -31 -1 -6 -3 -14 -4 -20 -1 -5 -3 -14 -4 -19 0 -5 -16 -5 -36 -1 -20
4 -38 4 -41 -1 -3 -5 -10 -9 -16 -9 -7 0 -6 6 2 15 7 9 8 15 2 15 -16 0 -22
-28 -7 -40 10 -8 14 -8 18 2 4 8 6 7 6 -4 1 -21 50 -25 70 -5 11 10 13 10 7 0
-13 -24 12 -13 28 12 14 21 24 25 70 25 47 0 54 -3 64 -25 10 -22 18 -25 62
-25 l50 0 1 78 0 77 22 -28 c12 -15 34 -49 48 -75 25 -43 31 -47 68 -50 l42
-3 -3 108 c-3 103 -4 108 -25 111 -22 3 -23 0 -23 -72 0 -42 -3 -76 -8 -76 -4
0 -16 17 -27 37 -11 20 -33 54 -48 75 -24 33 -33 39 -60 36 l-32 -3 -3 -90
c-1 -49 -3 -96 -5 -104 -1 -8 -22 34 -46 92 -44 106 -45 107 -78 107 -30 0
-36 -4 -53 -46z m70 -30 c6 -14 10 -31 10 -39 0 -15 -65 -25 -83 -12 -8 6 -6
7 6 3 13 -4 17 0 17 19 0 14 5 25 10 25 6 0 10 7 10 15 0 24 20 17 30 -11z"/>
<path d="M7490 1210 c-11 -11 -20 -26 -19 -32 0 -10 2 -10 6 0 7 18 23 15 23
-5 0 -27 12 -6 15 27 3 35 1 36 -25 10z"/>
<path d="M7491 1104 c0 -11 3 -14 6 -6 3 7 2 16 -1 19 -3 4 -6 -2 -5 -13z"/>
<path d="M4822 875 c1 -38 2 -42 5 -16 l4 34 35 -34 34 -33 0 47 c0 26 -4 47
-10 47 -5 0 -10 -14 -10 -32 l0 -32 -30 34 -29 35 1 -50z"/>
<path d="M4940 875 c0 -43 1 -45 28 -44 26 0 26 1 5 9 -26 11 -31 30 -8 30 21
0 19 18 -2 23 -15 3 -14 6 7 15 l25 11 -27 0 c-27 1 -28 -1 -28 -44z"/>
<path d="M5033 908 c9 -7 18 -29 20 -48 4 -34 4 -34 5 7 1 23 8 44 15 46 6 3
-3 6 -22 6 -30 1 -32 -1 -18 -11z"/>
<path d="M5116 898 c4 -13 11 -34 17 -48 l9 -25 16 35 15 35 12 -35 12 -35 17
39 c9 22 15 44 12 50 -2 6 -7 -1 -11 -16 -4 -16 -11 -28 -15 -28 -5 0 -12 12
-18 28 l-9 27 -16 -30 -15 -30 -11 28 c-13 32 -25 37 -15 5z"/>
<path d="M5282 908 c-28 -28 -7 -78 33 -78 27 0 45 18 45 45 0 27 -18 45 -45
45 -12 0 -26 -5 -33 -12z m62 -20 c15 -25 -17 -57 -42 -42 -22 14 -28 44 -10
55 18 12 39 7 52 -13z"/>
<path d="M5401 873 c1 -27 3 -40 6 -30 5 18 5 18 25 0 21 -18 21 -18 9 5 -9
16 -9 27 -2 36 12 14 -4 36 -26 36 -9 0 -13 -15 -12 -47z m29 22 c0 -8 -4 -15
-10 -15 -5 0 -10 7 -10 15 0 8 5 15 10 15 6 0 10 -7 10 -15z"/>
<path d="M5523 902 c-11 -15 -13 -15 -22 -2 -8 11 -10 4 -10 -30 1 -25 3 -37
6 -27 2 9 7 17 10 17 4 0 16 -8 27 -17 20 -18 20 -18 2 10 -14 23 -15 31 -5
43 6 8 10 16 8 19 -3 2 -10 -4 -16 -13z"/>
<path d="M7277 839 c7 -7 15 -10 18 -7 3 3 -2 9 -12 12 -14 6 -15 5 -6 -5z"/>
<path d="M7398 842 c13 -4 23 -10 23 -14 -2 -20 0 -20 15 -2 8 10 13 14 10 7
-9 -16 6 -23 51 -25 21 -1 32 -3 25 -6 -6 -2 -12 -12 -12 -23 0 -22 -8 -26
-60 -32 -22 -3 -40 1 -48 9 -7 8 -8 14 -3 14 5 0 9 8 8 19 -1 13 -7 17 -21 13
-11 -3 -15 -7 -8 -10 7 -2 9 -9 5 -15 -10 -17 -14 -35 -16 -92 -2 -46 0 -50
22 -53 22 -3 23 -1 18 38 l-4 41 51 -3 c50 -3 51 -4 60 -40 7 -27 15 -38 28
-38 23 0 25 55 3 87 -13 18 -13 22 0 33 30 25 7 105 -25 85 -5 -3 -10 -2 -10
3 0 5 -30 10 -67 10 -38 0 -58 -3 -45 -6z m-11 -114 c-3 -8 -6 -5 -6 6 -1 11
2 17 5 13 3 -3 4 -12 1 -19z"/>
<path d="M7600 740 l0 -110 85 0 c78 0 85 2 85 20 0 18 -7 20 -60 20 -57 0
-60 1 -60 25 0 24 3 25 60 25 53 0 60 2 60 20 0 18 -7 20 -60 20 -57 0 -60 1
-60 25 0 24 3 25 60 25 53 0 60 2 60 20 0 18 -7 20 -85 20 l-85 0 0 -110z"/>
<path d="M7826 829 c-14 -11 -26 -31 -26 -43 0 -34 36 -66 73 -66 41 0 62 -14
54 -34 -5 -12 -20 -16 -62 -16 -48 0 -55 -2 -55 -20 0 -18 7 -20 63 -20 81 0
107 17 107 70 0 45 -9 53 -70 60 -32 4 -46 10 -48 23 -3 14 5 17 52 17 57 0
70 7 60 34 -10 25 -114 22 -148 -5z"/>
<path d="M8030 832 c-49 -40 -16 -112 50 -112 21 0 42 -6 49 -13 18 -22 -8
-37 -66 -37 -46 0 -53 -3 -53 -20 0 -18 7 -20 70 -20 58 0 72 3 90 22 42 45
14 108 -47 108 -41 0 -63 9 -63 26 0 10 15 14 60 14 57 0 60 1 60 25 0 24 -2
25 -64 25 -47 0 -70 -5 -86 -18z"/>
<path d="M7310 810 c0 -5 5 -10 11 -10 5 0 7 5 4 10 -3 6 -8 10 -11 10 -2 0
-4 -4 -4 -10z"/>
<path d="M7287 764 c5 -13 3 -15 -7 -9 -8 5 -11 4 -6 -3 3 -5 0 -13 -6 -15 -9
-4 -9 -6 -1 -6 6 -1 18 5 25 12 7 8 20 12 28 9 19 -6 11 2 -17 17 -20 10 -22
9 -16 -5z"/>
<path d="M7233 618 c2 -21 -1 -38 -6 -38 -4 0 -6 -4 -3 -8 3 -5 -21 -7 -52 -6
-44 2 -50 1 -27 -5 l30 -9 -33 -1 c-18 0 -35 -7 -38 -15 -3 -8 -24 -18 -46
-21 -22 -4 -37 -10 -32 -14 5 -3 10 -14 12 -23 2 -13 -4 -18 -23 -19 -41 -2
-45 -3 -53 -15 -13 -21 -98 -31 -342 -43 -110 -5 106 -8 655 -9 806 -2 821 -2
853 18 40 25 71 89 72 148 0 41 -7 51 -25 33 -6 -5 -196 -11 -440 -12 -401 -3
-430 -2 -429 14 1 9 -2 17 -7 17 -5 0 -9 5 -9 11 0 5 4 7 10 4 5 -3 8 0 5 7
-3 7 -16 13 -30 13 -20 0 -25 -5 -26 -25 -1 -23 -2 -23 -10 5 -8 29 -8 28 -6
-7z"/>
<path d="M7090 559 c0 -5 5 -7 10 -4 6 3 10 8 10 11 0 2 -4 4 -10 4 -5 0 -10
-5 -10 -11z"/>
<path d="M7025 550 c-3 -6 1 -7 9 -4 18 7 21 14 7 14 -6 0 -13 -4 -16 -10z"/>
<path d="M6364 459 c-11 -18 18 -36 65 -42 29 -4 40 -2 30 4 -7 5 -26 9 -40 9
-27 0 -54 22 -42 33 3 4 4 7 0 7 -3 0 -9 -5 -13 -11z"/>
<path d="M6438 443 c7 -3 16 -2 19 1 4 3 -2 6 -13 5 -11 0 -14 -3 -6 -6z"/>
</g>
</svg>
